<mxfile host="app.diagrams.net" modified="2023-08-09T15:28:17.910Z" agent="Mozilla/5.0 (Windows NT 10.0; Win64; x64) AppleWebKit/537.36 (KHTML, like Gecko) Chrome/114.0.0.0 Safari/537.36" etag="EkTNQXbLVNN5fzQ46Dqf" version="21.6.6" type="device">
  <diagram name="Page-1" id="_dvXGfb29JDtZ3oWXpdX">
    <mxGraphModel dx="1562" dy="1664" grid="1" gridSize="10" guides="1" tooltips="1" connect="1" arrows="1" fold="1" page="1" pageScale="1" pageWidth="583" pageHeight="827" math="0" shadow="0">
      <root>
        <mxCell id="0" />
        <mxCell id="1" parent="0" />
        <mxCell id="wzmLlQwzgpNU3i6aqP-N-2" value="Catégorie" style="swimlane;whiteSpace=wrap;html=1;startSize=23;" vertex="1" parent="1">
          <mxGeometry x="60" y="310" width="200" height="200" as="geometry" />
        </mxCell>
        <mxCell id="wzmLlQwzgpNU3i6aqP-N-22" value="Nom" style="text;html=1;strokeColor=none;fillColor=none;align=center;verticalAlign=middle;whiteSpace=wrap;rounded=0;" vertex="1" parent="wzmLlQwzgpNU3i6aqP-N-2">
          <mxGeometry x="10" y="60" width="60" height="30" as="geometry" />
        </mxCell>
        <mxCell id="wzmLlQwzgpNU3i6aqP-N-90" value="id" style="text;html=1;align=center;verticalAlign=middle;resizable=0;points=[];autosize=1;strokeColor=none;fillColor=none;" vertex="1" parent="wzmLlQwzgpNU3i6aqP-N-2">
          <mxGeometry x="20" y="30" width="30" height="30" as="geometry" />
        </mxCell>
        <mxCell id="wzmLlQwzgpNU3i6aqP-N-3" value="Recette" style="swimlane;whiteSpace=wrap;html=1;startSize=23;" vertex="1" parent="1">
          <mxGeometry x="540" y="310" width="200" height="200" as="geometry" />
        </mxCell>
        <mxCell id="wzmLlQwzgpNU3i6aqP-N-23" value="Nom" style="text;html=1;strokeColor=none;fillColor=none;align=center;verticalAlign=middle;whiteSpace=wrap;rounded=0;" vertex="1" parent="wzmLlQwzgpNU3i6aqP-N-3">
          <mxGeometry x="10" y="58" width="60" height="30" as="geometry" />
        </mxCell>
        <mxCell id="wzmLlQwzgpNU3i6aqP-N-5" style="edgeStyle=orthogonalEdgeStyle;rounded=0;orthogonalLoop=1;jettySize=auto;html=1;entryX=0;entryY=0.5;entryDx=0;entryDy=0;endArrow=none;endFill=0;" edge="1" parent="1" source="wzmLlQwzgpNU3i6aqP-N-4" target="wzmLlQwzgpNU3i6aqP-N-3">
          <mxGeometry relative="1" as="geometry" />
        </mxCell>
        <mxCell id="wzmLlQwzgpNU3i6aqP-N-36" value="1,n" style="edgeLabel;html=1;align=center;verticalAlign=middle;resizable=0;points=[];" vertex="1" connectable="0" parent="wzmLlQwzgpNU3i6aqP-N-5">
          <mxGeometry x="0.113" y="-2" relative="1" as="geometry">
            <mxPoint x="-3" y="2" as="offset" />
          </mxGeometry>
        </mxCell>
        <mxCell id="wzmLlQwzgpNU3i6aqP-N-6" style="edgeStyle=orthogonalEdgeStyle;rounded=0;orthogonalLoop=1;jettySize=auto;html=1;entryX=1;entryY=0.5;entryDx=0;entryDy=0;endArrow=none;endFill=0;" edge="1" parent="1" source="wzmLlQwzgpNU3i6aqP-N-4" target="wzmLlQwzgpNU3i6aqP-N-2">
          <mxGeometry relative="1" as="geometry" />
        </mxCell>
        <mxCell id="wzmLlQwzgpNU3i6aqP-N-37" value="0,n" style="edgeLabel;html=1;align=center;verticalAlign=middle;resizable=0;points=[];" vertex="1" connectable="0" parent="wzmLlQwzgpNU3i6aqP-N-6">
          <mxGeometry x="-0.0442" y="-1" relative="1" as="geometry">
            <mxPoint as="offset" />
          </mxGeometry>
        </mxCell>
        <mxCell id="wzmLlQwzgpNU3i6aqP-N-4" value="contient" style="swimlane;whiteSpace=wrap;html=1;rounded=1;startSize=23;" vertex="1" parent="1">
          <mxGeometry x="373" y="380" width="81" height="60" as="geometry" />
        </mxCell>
        <mxCell id="wzmLlQwzgpNU3i6aqP-N-7" value="Ingrédient" style="swimlane;whiteSpace=wrap;html=1;" vertex="1" parent="1">
          <mxGeometry x="540" y="740" width="200" height="200" as="geometry" />
        </mxCell>
        <mxCell id="wzmLlQwzgpNU3i6aqP-N-27" value="Nom" style="text;html=1;align=center;verticalAlign=middle;resizable=0;points=[];autosize=1;strokeColor=none;fillColor=none;" vertex="1" parent="wzmLlQwzgpNU3i6aqP-N-7">
          <mxGeometry x="5" y="60" width="50" height="30" as="geometry" />
        </mxCell>
        <mxCell id="wzmLlQwzgpNU3i6aqP-N-63" value="Quantité" style="text;html=1;align=center;verticalAlign=middle;resizable=0;points=[];autosize=1;strokeColor=none;fillColor=none;" vertex="1" parent="wzmLlQwzgpNU3i6aqP-N-7">
          <mxGeometry y="90" width="70" height="30" as="geometry" />
        </mxCell>
        <mxCell id="wzmLlQwzgpNU3i6aqP-N-64" value="Unité" style="text;html=1;align=center;verticalAlign=middle;resizable=0;points=[];autosize=1;strokeColor=none;fillColor=none;" vertex="1" parent="wzmLlQwzgpNU3i6aqP-N-7">
          <mxGeometry x="10" y="120" width="50" height="30" as="geometry" />
        </mxCell>
        <mxCell id="wzmLlQwzgpNU3i6aqP-N-10" style="edgeStyle=orthogonalEdgeStyle;rounded=0;orthogonalLoop=1;jettySize=auto;html=1;endArrow=none;endFill=0;" edge="1" parent="1" source="wzmLlQwzgpNU3i6aqP-N-8" target="wzmLlQwzgpNU3i6aqP-N-7">
          <mxGeometry relative="1" as="geometry" />
        </mxCell>
        <mxCell id="wzmLlQwzgpNU3i6aqP-N-41" value="1,n" style="edgeLabel;html=1;align=center;verticalAlign=middle;resizable=0;points=[];" vertex="1" connectable="0" parent="wzmLlQwzgpNU3i6aqP-N-10">
          <mxGeometry x="0.2026" y="3" relative="1" as="geometry">
            <mxPoint x="-3" y="-8" as="offset" />
          </mxGeometry>
        </mxCell>
        <mxCell id="wzmLlQwzgpNU3i6aqP-N-16" style="edgeStyle=orthogonalEdgeStyle;rounded=0;orthogonalLoop=1;jettySize=auto;html=1;entryX=0.5;entryY=1;entryDx=0;entryDy=0;endArrow=none;endFill=0;" edge="1" parent="1" source="wzmLlQwzgpNU3i6aqP-N-8" target="wzmLlQwzgpNU3i6aqP-N-3">
          <mxGeometry relative="1" as="geometry" />
        </mxCell>
        <mxCell id="wzmLlQwzgpNU3i6aqP-N-40" value="1,n" style="edgeLabel;html=1;align=center;verticalAlign=middle;resizable=0;points=[];" vertex="1" connectable="0" parent="wzmLlQwzgpNU3i6aqP-N-16">
          <mxGeometry x="-0.1893" y="-2" relative="1" as="geometry">
            <mxPoint x="-1" as="offset" />
          </mxGeometry>
        </mxCell>
        <mxCell id="wzmLlQwzgpNU3i6aqP-N-8" value="est composé de" style="swimlane;whiteSpace=wrap;html=1;rounded=1;startSize=23;" vertex="1" parent="1">
          <mxGeometry x="570" y="590" width="140" height="80" as="geometry" />
        </mxCell>
        <mxCell id="wzmLlQwzgpNU3i6aqP-N-11" value="Utilisateur" style="swimlane;whiteSpace=wrap;html=1;" vertex="1" parent="1">
          <mxGeometry x="60" y="-110" width="200" height="200" as="geometry" />
        </mxCell>
        <mxCell id="wzmLlQwzgpNU3i6aqP-N-34" value="Email" style="text;html=1;align=center;verticalAlign=middle;resizable=0;points=[];autosize=1;strokeColor=none;fillColor=none;" vertex="1" parent="wzmLlQwzgpNU3i6aqP-N-11">
          <mxGeometry x="5" y="85" width="50" height="30" as="geometry" />
        </mxCell>
        <mxCell id="wzmLlQwzgpNU3i6aqP-N-33" value="Pseudo" style="text;html=1;align=center;verticalAlign=middle;resizable=0;points=[];autosize=1;strokeColor=none;fillColor=none;" vertex="1" parent="wzmLlQwzgpNU3i6aqP-N-11">
          <mxGeometry y="55" width="60" height="30" as="geometry" />
        </mxCell>
        <mxCell id="wzmLlQwzgpNU3i6aqP-N-35" value="Mot de passe" style="text;html=1;align=center;verticalAlign=middle;resizable=0;points=[];autosize=1;strokeColor=none;fillColor=none;" vertex="1" parent="wzmLlQwzgpNU3i6aqP-N-11">
          <mxGeometry x="5" y="115" width="100" height="30" as="geometry" />
        </mxCell>
        <mxCell id="wzmLlQwzgpNU3i6aqP-N-14" style="edgeStyle=orthogonalEdgeStyle;rounded=0;orthogonalLoop=1;jettySize=auto;html=1;entryX=0.5;entryY=1;entryDx=0;entryDy=0;endArrow=none;endFill=0;" edge="1" parent="1" source="wzmLlQwzgpNU3i6aqP-N-13" target="wzmLlQwzgpNU3i6aqP-N-11">
          <mxGeometry relative="1" as="geometry" />
        </mxCell>
        <mxCell id="wzmLlQwzgpNU3i6aqP-N-38" value="0,n" style="edgeLabel;html=1;align=center;verticalAlign=middle;resizable=0;points=[];" vertex="1" connectable="0" parent="wzmLlQwzgpNU3i6aqP-N-14">
          <mxGeometry x="0.0698" relative="1" as="geometry">
            <mxPoint as="offset" />
          </mxGeometry>
        </mxCell>
        <mxCell id="wzmLlQwzgpNU3i6aqP-N-15" style="edgeStyle=orthogonalEdgeStyle;rounded=0;orthogonalLoop=1;jettySize=auto;html=1;entryX=0.5;entryY=0;entryDx=0;entryDy=0;endArrow=none;endFill=0;" edge="1" parent="1" source="wzmLlQwzgpNU3i6aqP-N-13" target="wzmLlQwzgpNU3i6aqP-N-2">
          <mxGeometry relative="1" as="geometry" />
        </mxCell>
        <mxCell id="wzmLlQwzgpNU3i6aqP-N-39" value="1,1" style="edgeLabel;html=1;align=center;verticalAlign=middle;resizable=0;points=[];" vertex="1" connectable="0" parent="wzmLlQwzgpNU3i6aqP-N-15">
          <mxGeometry x="0.1959" y="-1" relative="1" as="geometry">
            <mxPoint as="offset" />
          </mxGeometry>
        </mxCell>
        <mxCell id="wzmLlQwzgpNU3i6aqP-N-13" value="crée" style="swimlane;whiteSpace=wrap;html=1;rounded=1;startSize=23;" vertex="1" parent="1">
          <mxGeometry x="119.5" y="180" width="81" height="60" as="geometry" />
        </mxCell>
        <mxCell id="wzmLlQwzgpNU3i6aqP-N-89" value="id" style="text;html=1;align=center;verticalAlign=middle;resizable=0;points=[];autosize=1;strokeColor=none;fillColor=none;" vertex="1" parent="1">
          <mxGeometry x="75" y="-82" width="30" height="30" as="geometry" />
        </mxCell>
        <mxCell id="wzmLlQwzgpNU3i6aqP-N-91" value="id" style="text;html=1;align=center;verticalAlign=middle;resizable=0;points=[];autosize=1;strokeColor=none;fillColor=none;" vertex="1" parent="1">
          <mxGeometry x="555" y="338" width="30" height="30" as="geometry" />
        </mxCell>
        <mxCell id="wzmLlQwzgpNU3i6aqP-N-92" value="id" style="text;html=1;align=center;verticalAlign=middle;resizable=0;points=[];autosize=1;strokeColor=none;fillColor=none;" vertex="1" parent="1">
          <mxGeometry x="545" y="768" width="30" height="30" as="geometry" />
        </mxCell>
        <mxCell id="wzmLlQwzgpNU3i6aqP-N-93" value="Utilisateur" style="swimlane;whiteSpace=wrap;html=1;" vertex="1" parent="1">
          <mxGeometry x="1180" y="-100" width="200" height="200" as="geometry" />
        </mxCell>
        <mxCell id="wzmLlQwzgpNU3i6aqP-N-94" value="Email" style="text;html=1;align=center;verticalAlign=middle;resizable=0;points=[];autosize=1;strokeColor=none;fillColor=none;" vertex="1" parent="wzmLlQwzgpNU3i6aqP-N-93">
          <mxGeometry x="5" y="85" width="50" height="30" as="geometry" />
        </mxCell>
        <mxCell id="wzmLlQwzgpNU3i6aqP-N-95" value="Pseudo" style="text;html=1;align=center;verticalAlign=middle;resizable=0;points=[];autosize=1;strokeColor=none;fillColor=none;" vertex="1" parent="wzmLlQwzgpNU3i6aqP-N-93">
          <mxGeometry y="55" width="60" height="30" as="geometry" />
        </mxCell>
        <mxCell id="wzmLlQwzgpNU3i6aqP-N-96" value="Mot de passe" style="text;html=1;align=center;verticalAlign=middle;resizable=0;points=[];autosize=1;strokeColor=none;fillColor=none;" vertex="1" parent="wzmLlQwzgpNU3i6aqP-N-93">
          <mxGeometry x="5" y="115" width="100" height="30" as="geometry" />
        </mxCell>
        <mxCell id="wzmLlQwzgpNU3i6aqP-N-120" value="id" style="text;html=1;align=center;verticalAlign=middle;resizable=0;points=[];autosize=1;strokeColor=none;fillColor=none;" vertex="1" parent="wzmLlQwzgpNU3i6aqP-N-93">
          <mxGeometry x="35" y="25" width="30" height="30" as="geometry" />
        </mxCell>
        <mxCell id="wzmLlQwzgpNU3i6aqP-N-97" value="Catégorie" style="swimlane;whiteSpace=wrap;html=1;startSize=23;" vertex="1" parent="1">
          <mxGeometry x="1220" y="330" width="200" height="200" as="geometry" />
        </mxCell>
        <mxCell id="wzmLlQwzgpNU3i6aqP-N-98" value="Nom" style="text;html=1;strokeColor=none;fillColor=none;align=center;verticalAlign=middle;whiteSpace=wrap;rounded=0;" vertex="1" parent="wzmLlQwzgpNU3i6aqP-N-97">
          <mxGeometry x="10" y="60" width="60" height="30" as="geometry" />
        </mxCell>
        <mxCell id="wzmLlQwzgpNU3i6aqP-N-118" value="utilisateur_id" style="text;html=1;align=center;verticalAlign=middle;resizable=0;points=[];autosize=1;strokeColor=none;fillColor=none;" vertex="1" parent="wzmLlQwzgpNU3i6aqP-N-97">
          <mxGeometry x="10" y="100" width="90" height="30" as="geometry" />
        </mxCell>
        <mxCell id="wzmLlQwzgpNU3i6aqP-N-122" value="id" style="text;html=1;align=center;verticalAlign=middle;resizable=0;points=[];autosize=1;strokeColor=none;fillColor=none;" vertex="1" parent="wzmLlQwzgpNU3i6aqP-N-97">
          <mxGeometry x="20" y="30" width="30" height="30" as="geometry" />
        </mxCell>
        <mxCell id="wzmLlQwzgpNU3i6aqP-N-100" value="Recette" style="swimlane;whiteSpace=wrap;html=1;startSize=23;" vertex="1" parent="1">
          <mxGeometry x="1910" y="330" width="200" height="200" as="geometry" />
        </mxCell>
        <mxCell id="wzmLlQwzgpNU3i6aqP-N-101" value="Nom" style="text;html=1;strokeColor=none;fillColor=none;align=center;verticalAlign=middle;whiteSpace=wrap;rounded=0;" vertex="1" parent="wzmLlQwzgpNU3i6aqP-N-100">
          <mxGeometry x="10" y="58" width="60" height="30" as="geometry" />
        </mxCell>
        <mxCell id="wzmLlQwzgpNU3i6aqP-N-124" value="id" style="text;html=1;align=center;verticalAlign=middle;resizable=0;points=[];autosize=1;strokeColor=none;fillColor=none;" vertex="1" parent="wzmLlQwzgpNU3i6aqP-N-100">
          <mxGeometry x="25" y="28" width="30" height="30" as="geometry" />
        </mxCell>
        <mxCell id="wzmLlQwzgpNU3i6aqP-N-102" value="Ingrédient" style="swimlane;whiteSpace=wrap;html=1;" vertex="1" parent="1">
          <mxGeometry x="1910" y="768" width="200" height="200" as="geometry" />
        </mxCell>
        <mxCell id="wzmLlQwzgpNU3i6aqP-N-103" value="Nom" style="text;html=1;align=center;verticalAlign=middle;resizable=0;points=[];autosize=1;strokeColor=none;fillColor=none;" vertex="1" parent="wzmLlQwzgpNU3i6aqP-N-102">
          <mxGeometry x="5" y="120" width="50" height="30" as="geometry" />
        </mxCell>
        <mxCell id="wzmLlQwzgpNU3i6aqP-N-104" value="Quantité" style="text;html=1;align=center;verticalAlign=middle;resizable=0;points=[];autosize=1;strokeColor=none;fillColor=none;" vertex="1" parent="wzmLlQwzgpNU3i6aqP-N-102">
          <mxGeometry x="5" y="60" width="70" height="30" as="geometry" />
        </mxCell>
        <mxCell id="wzmLlQwzgpNU3i6aqP-N-105" value="Unité" style="text;html=1;align=center;verticalAlign=middle;resizable=0;points=[];autosize=1;strokeColor=none;fillColor=none;" vertex="1" parent="wzmLlQwzgpNU3i6aqP-N-102">
          <mxGeometry x="5" y="90" width="50" height="30" as="geometry" />
        </mxCell>
        <mxCell id="wzmLlQwzgpNU3i6aqP-N-108" value="id" style="text;html=1;align=center;verticalAlign=middle;resizable=0;points=[];autosize=1;strokeColor=none;fillColor=none;" vertex="1" parent="wzmLlQwzgpNU3i6aqP-N-102">
          <mxGeometry x="15" y="29" width="30" height="30" as="geometry" />
        </mxCell>
        <mxCell id="wzmLlQwzgpNU3i6aqP-N-121" value="" style="edgeStyle=orthogonalEdgeStyle;rounded=0;orthogonalLoop=1;jettySize=auto;html=1;" edge="1" parent="1" source="wzmLlQwzgpNU3i6aqP-N-118" target="wzmLlQwzgpNU3i6aqP-N-120">
          <mxGeometry relative="1" as="geometry">
            <Array as="points">
              <mxPoint x="1110" y="445" />
              <mxPoint x="1110" y="-60" />
            </Array>
          </mxGeometry>
        </mxCell>
        <mxCell id="wzmLlQwzgpNU3i6aqP-N-125" value="CategorieRecette" style="swimlane;whiteSpace=wrap;html=1;" vertex="1" parent="1">
          <mxGeometry x="1560" y="330" width="200" height="100" as="geometry" />
        </mxCell>
        <mxCell id="wzmLlQwzgpNU3i6aqP-N-129" value="categorie_id" style="text;html=1;align=center;verticalAlign=middle;resizable=0;points=[];autosize=1;strokeColor=none;fillColor=none;" vertex="1" parent="wzmLlQwzgpNU3i6aqP-N-125">
          <mxGeometry x="5" y="30" width="90" height="30" as="geometry" />
        </mxCell>
        <mxCell id="wzmLlQwzgpNU3i6aqP-N-130" value="recette_id" style="text;html=1;align=center;verticalAlign=middle;resizable=0;points=[];autosize=1;strokeColor=none;fillColor=none;" vertex="1" parent="wzmLlQwzgpNU3i6aqP-N-125">
          <mxGeometry x="10" y="58" width="80" height="30" as="geometry" />
        </mxCell>
        <mxCell id="wzmLlQwzgpNU3i6aqP-N-131" style="edgeStyle=orthogonalEdgeStyle;rounded=0;orthogonalLoop=1;jettySize=auto;html=1;entryX=1.027;entryY=0.493;entryDx=0;entryDy=0;entryPerimeter=0;" edge="1" parent="1" source="wzmLlQwzgpNU3i6aqP-N-129" target="wzmLlQwzgpNU3i6aqP-N-122">
          <mxGeometry relative="1" as="geometry" />
        </mxCell>
        <mxCell id="wzmLlQwzgpNU3i6aqP-N-132" style="edgeStyle=orthogonalEdgeStyle;rounded=0;orthogonalLoop=1;jettySize=auto;html=1;entryX=-0.007;entryY=0.507;entryDx=0;entryDy=0;entryPerimeter=0;" edge="1" parent="1" source="wzmLlQwzgpNU3i6aqP-N-130" target="wzmLlQwzgpNU3i6aqP-N-124">
          <mxGeometry relative="1" as="geometry" />
        </mxCell>
        <mxCell id="wzmLlQwzgpNU3i6aqP-N-133" value="RecetteIngredient" style="swimlane;whiteSpace=wrap;html=1;" vertex="1" parent="1">
          <mxGeometry x="1910" y="580" width="200" height="100" as="geometry" />
        </mxCell>
        <mxCell id="wzmLlQwzgpNU3i6aqP-N-134" value="recette_id" style="text;html=1;align=center;verticalAlign=middle;resizable=0;points=[];autosize=1;strokeColor=none;fillColor=none;" vertex="1" parent="wzmLlQwzgpNU3i6aqP-N-133">
          <mxGeometry x="10" y="30" width="80" height="30" as="geometry" />
        </mxCell>
        <mxCell id="wzmLlQwzgpNU3i6aqP-N-135" value="ingredient_id" style="text;html=1;align=center;verticalAlign=middle;resizable=0;points=[];autosize=1;strokeColor=none;fillColor=none;" vertex="1" parent="wzmLlQwzgpNU3i6aqP-N-133">
          <mxGeometry x="10" y="60" width="90" height="30" as="geometry" />
        </mxCell>
        <mxCell id="wzmLlQwzgpNU3i6aqP-N-136" style="edgeStyle=orthogonalEdgeStyle;rounded=0;orthogonalLoop=1;jettySize=auto;html=1;entryX=1.14;entryY=0.747;entryDx=0;entryDy=0;entryPerimeter=0;" edge="1" parent="1" source="wzmLlQwzgpNU3i6aqP-N-134" target="wzmLlQwzgpNU3i6aqP-N-124">
          <mxGeometry relative="1" as="geometry">
            <Array as="points">
              <mxPoint x="2210" y="625" />
              <mxPoint x="2210" y="380" />
            </Array>
          </mxGeometry>
        </mxCell>
        <mxCell id="wzmLlQwzgpNU3i6aqP-N-137" style="edgeStyle=orthogonalEdgeStyle;rounded=0;orthogonalLoop=1;jettySize=auto;html=1;" edge="1" parent="1" source="wzmLlQwzgpNU3i6aqP-N-135" target="wzmLlQwzgpNU3i6aqP-N-108">
          <mxGeometry relative="1" as="geometry">
            <Array as="points">
              <mxPoint x="1680" y="655" />
              <mxPoint x="1680" y="812" />
            </Array>
          </mxGeometry>
        </mxCell>
      </root>
    </mxGraphModel>
  </diagram>
</mxfile>
